# xmcd
#
# Track frame offsets:
#	150
#	1432
#	7898
#	38629
#	45358
#	78081
#	93383
#	153376
#	195075
#	203125
#	220575
#	277626
#
# Disc length: 3714 seconds
# Revision: 0
# Processed by: cddbd v1.5.2PL0 Copyright (c) Steve Scherf et al.
# Submitted via: dBpowerAMP V12.0
#
DISCID=790e800c
DTITLE=Hale Dwoskin - The Inner Circle Retreat 03 CD 10
DYEAR=2007
DGENRE=Speech
TTITLE0=Intro Music
TTITLE1=How to Share the Method
TTITLE2=Wanting to Be Controlled - Being Addicted
TTITLE3=Stop Identifying with Your Concepts
TTITLE4=Can You Eat Poison - Life Is Not Black or White
TTITLE5=How Lester Was Healing His Body
TTITLE6=Ways of Teaching the Method - Let the Truth Find You
TTITLE7=Child Abuse
TTITLE8=If a Tool Does Not Work for You
TTITLE9=Constantly Thinking and Evaluating
TTITLE10=Holding On to Memories
TTITLE11=Concluding Music
EXTD=
EXTT0=
EXTT1=
EXTT2=
EXTT3=
EXTT4=
EXTT5=
EXTT6=
EXTT7=
EXTT8=
EXTT9=
EXTT10=
EXTT11=
PLAYORDER=
